<svg width="151" height="151" viewBox="0 0 151 151" fill="none" xmlns="http://www.w3.org/2000/svg">
<g id="venus-icon">
<circle id="border" cx="75.5" cy="75.5" r="70.5" fill="#E1E1E1" stroke="#E1E1E1" stroke-width="10"/>
<circle id="border_2" cx="75.5" cy="75.5" r="61" fill="#E1E1E1" stroke="#161616" stroke-width="9"/>
<path id="big-blob" d="M32.925 82.0491L16.55 68.9491C13.275 75.4991 16.55 91.8741 19.825 101.699C23.2411 111.947 30.7417 113.707 36.2 118.074L50.0278 119.167H57.3056L64.5833 115.528L75.5 114.799H82.05H88.6L101.7 111.524V104.974L108.25 97.3339L111.889 90.0561L108.25 82.7783L111.889 75.5005V65.6741L108.25 55.8491L101.7 42.7491L91.875 39.4741L85.325 46.0241L82.05 50.0283V60.945L85.325 65.6741L88.6 72.2241V78.7741L78.775 82.0491H68.95L55.85 95.1491H42.75L32.925 82.0491Z" fill="#161616" stroke="#161616" stroke-width="4" stroke-linejoin="round"/>
<path id="left-blob" d="M39.1111 53.0603L41.8191 46.9955L47.2351 40.9307L52.6512 34.8659L63.4832 31.8335L68.2222 40.9307L63.4832 46.9955L60.7752 53.0603H55.3592V56.0928V59.1252V68.2224H44.5271L39.1111 65.19V56.0928V53.0603Z" fill="#161616" stroke="#161616" stroke-width="4" stroke-linejoin="round"/>
</g>
</svg>
